<svg xmlns="http://www.w3.org/2000/svg" width="32" height="32" viewBox="0 0 8.467 8.467"><g stroke="#483f51" transform="matrix(.26458 0 0 .26458 .094 -270.557)"><g stroke="none" stroke-linejoin="round" transform="translate(.044 2.214)"><g color="#000" font-family="sans-serif" transform="matrix(.83235 -.83258 .83235 .83258 -898.115 232.772)"><path style="line-height:normal;font-variant-ligatures:normal;font-variant-position:normal;font-variant-caps:normal;font-variant-numeric:normal;font-variant-alternates:normal;font-feature-settings:normal;text-indent:0;text-align:start;text-decoration-line:none;text-decoration-style:solid;text-decoration-color:#000;text-transform:none;text-orientation:mixed;shape-padding:0;isolation:auto;mix-blend-mode:normal" fill="#504e67" d="M3556.82-842.422a.5.5 0 0 0-.343.147l-2.543 2.545-.41-.41a1.098 1.098 0 0 0-1.542 0l-1.662 1.661a1.094 1.094 0 0 0 0 1.542l.412.412-2.992 2.992a.5.5 0 0 0-.137.44l1.249 7.077a.5.5 0 0 0 .845.266l6.047-6.049c.458.46 9.328 9.34 13.79 13.807.551.553.87 1.403 1.265 2.265.394.863.915 1.782 1.976 2.174.993.367 2.075-.104 2.957-.554.883-.451 1.575-.967 1.575-.967a.5.5 0 0 0 .055-.754l-18.78-18.809 2.768-2.77a.5.5 0 0 0 0-.706l-4.162-4.162a.5.5 0 0 0-.362-.147z" overflow="visible" transform="rotate(45 -547.661 -3408.707) scale(.84953 .84929)"/><path style="line-height:normal;font-variant-ligatures:normal;font-variant-position:normal;font-variant-caps:normal;font-variant-numeric:normal;font-variant-alternates:normal;font-feature-settings:normal;text-indent:0;text-align:start;text-decoration-line:none;text-decoration-style:solid;text-decoration-color:#000;text-transform:none;text-orientation:mixed;shape-padding:0;isolation:auto;mix-blend-mode:normal" fill="#dbdcdd" d="M3556.832-841.217l3.453 3.457-10.62 10.625-1.036-5.875z" overflow="visible" transform="rotate(45 -547.661 -3408.707) scale(.84953 .84929)"/><path style="line-height:normal;font-variant-ligatures:normal;font-variant-position:normal;font-variant-caps:normal;font-variant-numeric:normal;font-variant-alternates:normal;font-feature-settings:normal;text-indent:0;text-align:start;text-decoration-line:none;text-decoration-style:solid;text-decoration-color:#000;text-transform:none;text-orientation:mixed;shape-padding:0;isolation:auto;mix-blend-mode:normal" fill="#efa15b" d="M3552.752-839.463c.021 0 .044.01.062.027l.412.413-1.791 1.789-.412-.41c-.038-.039-.036-.087 0-.128l1.662-1.662c.02-.02.041-.029.062-.029zM3557.87-833.93l8.86 8.873-1.421 1.422-8.86-8.873z" overflow="visible" transform="rotate(45 -547.661 -3408.707) scale(.84953 .84929)"/><path style="line-height:normal;font-variant-ligatures:normal;font-variant-position:normal;font-variant-caps:normal;font-variant-numeric:normal;font-variant-alternates:normal;font-feature-settings:normal;text-indent:0;text-align:start;text-decoration-line:none;text-decoration-style:solid;text-decoration-color:#000;text-transform:none;text-orientation:mixed;shape-padding:0;isolation:auto;mix-blend-mode:normal" fill="#bb803f" d="M3567.436-824.348l8.767 8.78c-.251.171-.411.306-.928.57-.795.406-1.74.661-2.156.508-.691-.256-1.045-.842-1.414-1.649s-.703-1.792-1.467-2.556l-4.224-4.23z" overflow="visible" transform="rotate(45 -547.661 -3408.707) scale(.84953 .84929)"/><path fill="#333" d="M3879.273-841.217l-.418.418 3.036 3.04-9.91 9.913.124.711 10.622-10.625zM3875.188-839.463a.085.085 0 00-.063.03l.208.206-1.725 1.725.267.268 1.792-1.79-.413-.412a.086.086 0 00-.06-.027zM3880.31-833.93l-.417.418 8.443 8.455-1.004 1.004.418.418 1.422-1.422zM3889.877-824.348l-.418.418 8.35 8.362c-.252.171-.412.306-.928.57-.45.23-.939.4-1.362.486.016.006.027.016.042.022.414.153 1.36-.102 2.156-.508.516-.264.676-.399.928-.57z" opacity=".1" overflow="visible" transform="rotate(45 -410.701 -3739.362) scale(.84953 .84929)" style="line-height:normal;font-variant-ligatures:normal;font-variant-position:normal;font-variant-caps:normal;font-variant-numeric:normal;font-variant-alternates:normal;font-feature-settings:normal;text-indent:0;text-align:start;text-decoration-line:none;text-decoration-style:solid;text-decoration-color:#000;text-transform:none;text-orientation:mixed;shape-padding:0;isolation:auto;mix-blend-mode:normal"/></g><path fill="#504e67" d="M27.604 1048.719a.5.5 0 1 1-.709-.708.5.5 0 0 1 .71.708z"/></g><g stroke="none" stroke-width="1.014" color="#000" font-family="sans-serif" transform="scale(.9858 -.9858) rotate(-45 -2512.48 -44.792)"><path style="line-height:normal;font-variant-ligatures:normal;font-variant-position:normal;font-variant-caps:normal;font-variant-numeric:normal;font-variant-alternates:normal;font-feature-settings:normal;text-indent:0;text-align:start;text-decoration-line:none;text-decoration-style:solid;text-decoration-color:#000;text-transform:none;text-orientation:mixed;shape-padding:0;isolation:auto;mix-blend-mode:normal" fill="#504e67" d="M3556.234-827.545a.5.5 0 0 0-.361.147l-8.365 8.365a2.482 2.482 0 0 0 0 3.496l1.394 1.392a2.478 2.478 0 0 0 3.494.002l8.366-8.365a.5.5 0 0 0 0-.707l-4.184-4.183a.5.5 0 0 0-.346-.147z" overflow="visible" transform="rotate(45 1571.801 -3440.762) scale(1.0144 -1.01439)"/><path style="line-height:normal;font-variant-ligatures:normal;font-variant-position:normal;font-variant-caps:normal;font-variant-numeric:normal;font-variant-alternates:normal;font-feature-settings:normal;text-indent:0;text-align:start;text-decoration-line:none;text-decoration-style:solid;text-decoration-color:#000;text-transform:none;text-orientation:mixed;shape-padding:0;isolation:auto;mix-blend-mode:normal" fill="#deb959" d="M3554.834-824.943l3.475 3.474-6.62 6.62a1.463 1.463 0 0 1-2.08 0l-1.392-1.395a1.463 1.463 0 0 1 0-2.08z" overflow="visible" transform="rotate(45 1571.801 -3440.762) scale(1.0144 -1.01439)"/><path style="line-height:normal;font-variant-ligatures:normal;font-variant-position:normal;font-variant-caps:normal;font-variant-numeric:normal;font-variant-alternates:normal;font-feature-settings:normal;text-indent:0;text-align:start;text-decoration-line:none;text-decoration-style:solid;text-decoration-color:#000;text-transform:none;text-orientation:mixed;shape-padding:0;isolation:auto;mix-blend-mode:normal" fill="#504e67" d="M-12.01 1012.856c-.82 0-1.498.675-1.498 1.496v5.52c0 .82.677 1.497 1.498 1.497h.02c.82 0 1.498-.677 1.498-1.498v-5.52c0-.82-.677-1.496-1.498-1.496z" overflow="visible"/><path style="line-height:normal;font-variant-ligatures:normal;font-variant-position:normal;font-variant-caps:normal;font-variant-numeric:normal;font-variant-alternates:normal;font-feature-settings:normal;text-indent:0;text-align:start;text-decoration-line:none;text-decoration-style:solid;text-decoration-color:#000;text-transform:none;text-orientation:mixed;shape-padding:0;isolation:auto;mix-blend-mode:normal" fill="#f3ae0b" d="M-12.01 1013.87h.02a.47.47 0 0 1 .482.482v5.52a.472.472 0 0 1-.482.483h-.02a.472.472 0 0 1-.482-.484v-5.52a.47.47 0 0 1 .482-.482z" overflow="visible"/><path style="line-height:normal;font-variant-ligatures:normal;font-variant-position:normal;font-variant-caps:normal;font-variant-numeric:normal;font-variant-alternates:normal;font-feature-settings:normal;text-indent:0;text-align:start;text-decoration-line:none;text-decoration-style:solid;text-decoration-color:#000;text-transform:none;text-orientation:mixed;shape-padding:0;isolation:auto;mix-blend-mode:normal" fill="#f8e88e" d="M3556.229-826.338l3.474 3.475-.687.687-3.475-3.474z" overflow="visible" transform="rotate(45 1571.801 -3440.762) scale(1.0144 -1.01439)"/><path style="line-height:normal;font-variant-ligatures:normal;font-variant-position:normal;font-variant-caps:normal;font-variant-numeric:normal;font-variant-alternates:normal;font-feature-settings:normal;text-indent:0;text-align:start;text-decoration-line:none;text-decoration-style:solid;text-decoration-color:#000;text-transform:none;text-orientation:mixed;shape-padding:0;isolation:auto;mix-blend-mode:normal" fill="#504e67" fill-rule="evenodd" d="M-12.008 1033.219a.507.507 0 0 0-.5.515v7.336a.508.508 0 1 0 1.016 0v-7.336a.507.507 0 0 0-.516-.515z" overflow="visible"/><path style="line-height:normal;font-variant-ligatures:normal;font-variant-position:normal;font-variant-caps:normal;font-variant-numeric:normal;font-variant-alternates:normal;font-feature-settings:normal;text-indent:0;text-align:start;text-decoration-line:none;text-decoration-style:solid;text-decoration-color:#000;text-transform:none;text-orientation:mixed;shape-padding:0;isolation:auto;mix-blend-mode:normal" fill="#504e67" fill-rule="evenodd" d="M-12.338 1040.639c-.688 0-1.256.567-1.256 1.256v3.757H-10.58v-3.758c0-.688-.57-1.255-1.258-1.255z" overflow="visible"/><path style="line-height:normal;font-variant-ligatures:normal;font-variant-position:normal;font-variant-caps:normal;font-variant-numeric:normal;font-variant-alternates:normal;font-feature-settings:normal;text-indent:0;text-align:start;text-decoration-line:none;text-decoration-style:solid;text-decoration-color:#000;text-transform:none;text-orientation:mixed;shape-padding:0;isolation:auto;mix-blend-mode:normal" fill="#dbdcdd" fill-rule="evenodd" d="M-12.338 1041.652h.5c.14 0 .244.102.244.242v2.745h-.986v-2.744c0-.14.102-.243.242-.243z" overflow="visible"/><path style="line-height:normal;font-variant-ligatures:normal;font-variant-position:normal;font-variant-caps:normal;font-variant-numeric:normal;font-variant-alternates:normal;font-feature-settings:normal;text-indent:0;text-align:start;text-decoration-line:none;text-decoration-style:solid;text-decoration-color:#000;text-transform:none;text-orientation:mixed;shape-padding:0;isolation:auto;mix-blend-mode:normal" fill="#504e67" fill-rule="evenodd" d="M-12.03 1024.486a.507.507 0 0 0-.476.535l.055 1.393a.507.507 0 1 0 1.014-.04l-.057-1.393a.507.507 0 0 0-.535-.495z" overflow="visible"/><path fill="#333" d="M3877.275-824.943l-.418.418 3.057 3.056-6.62 6.62c-.18.18-.395.297-.622.365.5.15 1.06.033 1.459-.366l6.619-6.619z" opacity=".1" overflow="visible" transform="rotate(45 1735.343 -3835.587) scale(1.0144 -1.01439)" style="line-height:normal;font-variant-ligatures:normal;font-variant-position:normal;font-variant-caps:normal;font-variant-numeric:normal;font-variant-alternates:normal;font-feature-settings:normal;text-indent:0;text-align:start;text-decoration-line:none;text-decoration-style:solid;text-decoration-color:#000;text-transform:none;text-orientation:mixed;shape-padding:0;isolation:auto;mix-blend-mode:normal"/><path fill="#333" d="M3877.273-821.963c-.12 0-.24.05-.336.147l-.093.093a.456.456 0 01-.058.592l-3.751 3.752c.018.027.03.058.055.082l.014.014c.192.192.479.192.672 0l3.847-3.848a.463.463 0 000-.674l-.014-.013a.475.475 0 00-.338-.145zM3878.67-826.338l-.418.418 3.057 3.057-.27.27.418.417.688-.687z" opacity=".1" overflow="visible" transform="rotate(45 1735.343 -3835.587) scale(1.0144 -1.01439)" style="line-height:normal;font-variant-ligatures:normal;font-variant-position:normal;font-variant-caps:normal;font-variant-numeric:normal;font-variant-alternates:normal;font-feature-settings:normal;text-indent:0;text-align:start;text-decoration-line:none;text-decoration-style:solid;text-decoration-color:#000;text-transform:none;text-orientation:mixed;shape-padding:0;isolation:auto;mix-blend-mode:normal"/><path fill="#333" fill-rule="evenodd" d="M3894.14-839.143l-.167.17.342.342-1.913 1.912.174.174c.098.098.242.1.34.002l1.912-1.912z" opacity=".1" overflow="visible" transform="rotate(45 1735.343 -3835.587) scale(1.0144 -1.01439)" style="line-height:normal;font-variant-ligatures:normal;font-variant-position:normal;font-variant-caps:normal;font-variant-numeric:normal;font-variant-alternates:normal;font-feature-settings:normal;text-indent:0;text-align:start;text-decoration-line:none;text-decoration-style:solid;text-decoration-color:#000;text-transform:none;text-orientation:mixed;shape-padding:0;isolation:auto;mix-blend-mode:normal"/></g></g></svg>